<svg data-v-2072b8fa="" xmlns="http://www.w3.org/2000/svg" viewBox="0 0 130 90" class="xl:w-24">
<defs data-v-2072b8fa=""><style data-v-2072b8fa="">.cls-1{fill:#e4037e}.cls-2{fill:#e5007d}</style></defs><path data-v-2072b8fa="" d="M30.64 11.15h-6.53V0h30.83C67.8 0 77 6.63 77 18.38c0 7.93-4.31 13.05-8.63 15.26v.2c7.73 2.31 11.45 9.54 11.45 16.77 0 14.26-11.35 20.69-24.61 20.69H24.15V60.17h6.49zm24.4 18c5.53 0 8.64-4 8.64-9.14s-3-8.83-8.84-8.83h-11v18zm-9.16 31h9.64c6.06 0 9.46-4.75 9.46-11.37s-3.5-11.26-9.46-11.26H43.8v20.2c0 1.55.75 2.43 2.08 2.43z" class="cls-1"></path><path data-v-2072b8fa="" d="M84.41 44.46a3.27 3.27 0 01-1.58-.37 2.75 2.75 0 01-.89-.69 6.47 6.47 0 01-3.78 1.06c-3.28 0-5.08-1.7-5.08-4.48v-.19c0-2.75 2.11-4.28 5.69-4.28h2.14V35c0-1.31-.39-2.12-1.75-2.12a5.28 5.28 0 00-1.89.34 4.56 4.56 0 01-1.5.41A1.61 1.61 0 0174.1 32c0-.95.75-1.56 1.73-1.95a10.89 10.89 0 013.72-.61c4.06 0 5.75 1.69 5.75 6.11V40a1.72 1.72 0 00.7 1.43 1.8 1.8 0 01.53 1.25c.02 1.32-.87 1.78-2.12 1.78zm-3.5-5.87h-1.58c-1.34 0-1.89.48-1.89 1.31v.17c0 .94.67 1.36 1.72 1.36a1.66 1.66 0 001.75-1.84zM100 44.46a3.23 3.23 0 01-1.89-.62 2.16 2.16 0 01-.47-.44 6.28 6.28 0 01-3.48 1.06c-3.64 0-5.44-2.12-5.44-6.12v-2.11c0-4.28 1.25-6.75 5.14-6.75a5.63 5.63 0 012.72.72v-3.83a2.18 2.18 0 012.2-2.2 2.2 2.2 0 012.22 2.2V40a1.7 1.7 0 00.69 1.48 1.8 1.8 0 01.53 1.25c.03 1.27-.88 1.73-2.22 1.73zm-3.39-10.65a2.57 2.57 0 00-1.61-.66c-1.36 0-1.8.8-1.8 2.19v3.36c0 1.39.5 2.09 1.83 2.09a3 3 0 001.61-.59zM107 28.15a2.44 2.44 0 112.45-2.42 2.43 2.43 0 01-2.45 2.42zm0 16.31a2.2 2.2 0 01-2.19-2.2V31.7a2.21 2.21 0 114.42 0v10.56a2.22 2.22 0 01-2.23 2.2zM118.59 44.46c-4.25 0-6.17-2.7-6.17-6v-3c0-3.28 1.92-6 6.17-6s6.14 2.72 6.14 6v3c0 3.3-1.91 6-6.14 6zm1.75-9c0-1.39-.61-2.09-1.75-2.09s-1.75.7-1.75 2.09v2.94c0 1.39.58 2.09 1.75 2.09s1.75-.7 1.75-2.09z"></path><path data-v-2072b8fa="" d="M88.78 58.1a1.1 1.1 0 01-1.07-.74 32.73 32.73 0 00-1.81-3.53h-1.06v3.05a1.22 1.22 0 01-2.44 0v-8.66A1.22 1.22 0 0183.62 47h2.81c2.27 0 3.49 1 3.49 3.16v.57a2.78 2.78 0 01-1.49 2.62c.56 1 1 2 1.51 3a1.21 1.21 0 01-1.16 1.75zm-1.3-7.94c0-.68-.46-.89-1.09-.89h-1.55v2.35h1.46c.54 0 1.18-.15 1.18-.89zM97.73 58H93a1.15 1.15 0 01-1.16-1.16v-8.68A1.16 1.16 0 0193 47h4.51a1.16 1.16 0 011.16 1.16 1.15 1.15 0 01-1.16 1.16H94.3v2h2.92a1.13 1.13 0 011.12 1.13 1.12 1.12 0 01-1.12 1.11H94.3v2h3.43a1.16 1.16 0 011.14 1.16A1.14 1.14 0 0197.73 58zM101.7 58.1a1.21 1.21 0 01-1.22-1.22v-8.8a1.22 1.22 0 012.44 0v8.8a1.22 1.22 0 01-1.22 1.22zM111.16 58h-5.52a1.13 1.13 0 01-1.14-1.16 2.13 2.13 0 01.36-1.13l4.14-6.39h-3.36a1.14 1.14 0 01-1.12-1.16 1.15 1.15 0 011.13-1.16h5.49a1.08 1.08 0 011.12 1.16 2 2 0 01-.38 1.07l-4.18 6.42h3.46a1.15 1.15 0 011.13 1.16 1.14 1.14 0 01-1.13 1.19zM120.86 58.1a1.21 1.21 0 01-1.22-1.22v-3.23h-3.37v3.23a1.22 1.22 0 11-2.43 0v-8.8a1.22 1.22 0 012.43 0v3.43h3.37v-3.43a1.21 1.21 0 112.42 0v8.8a1.21 1.21 0 01-1.2 1.22z" class="cls-2"></path><path data-v-2072b8fa="" d="M79.72 69a1.16 1.16 0 010-2.32 1.16 1.16 0 010 2.32zM85.84 68.92h-2.45a.94.94 0 01-.94-.94v-6.59a1 1 0 01.94-.94h2.15c2 0 2.63 1.09 2.63 2.12v.32a1.71 1.71 0 01-1 1.67 1.9 1.9 0 011.3 1.84v.32c0 1.19-.7 2.2-2.63 2.2zm.45-6.05a.69.69 0 00-.78-.68h-1.18v1.69h1c.48 0 1-.19 1-.74zm.31 3.38c0-.4-.29-.72-.84-.72h-1.43v1.67h1.48a.72.72 0 00.79-.73zM94.44 68.92h-4.26a.87.87 0 01-.88-.92 1.69 1.69 0 01.27-.88l3.21-4.91h-2.59a.9.9 0 010-1.79h4.24a.83.83 0 01.86.89 1.6 1.6 0 01-.29.83l-3.23 5h2.67a.9.9 0 01.88.9.88.88 0 01-.88.88zM101.94 69a.94.94 0 01-.94-1v-2.5h-2.6V68a.95.95 0 11-1.89 0v-6.8a.95.95 0 011.89 0v2.65h2.6v-2.57a.94.94 0 111.87 0v6.8a.94.94 0 01-.93.92z"></path><path data-v-2072b8fa="" d="M29.89 17.72c-6.28 1.07-12.88 1.66-19.1.6l-1.07-.2a17.74 17.74 0 01-6.42-2.56C.24 13.48-.71 10.66.53 7.2a16 16 0 013-5.12 4.64 4.64 0 016.38-1 4 4 0 011.71 4c-.31 1.57-1.82 2.71-2.54 4.07a2.17 2.17 0 00-.22 2A4.72 4.72 0 0011.51 13a19 19 0 002.66.71c7.4 1.42 15.05-1.87 21.82-4.5l2.48-1C43 6.45 47.4 4.43 52.26 3.75a19.67 19.67 0 0111.52 1.6 14.71 14.71 0 017.63 8.12 15.2 15.2 0 01-1.16 11.84A20.67 20.67 0 0162 33.88c-.51.29-.58.56-.33 1.08a52.23 52.23 0 012.57 6.63A148 148 0 0168.05 57c.55 2.58 1.13 5.16 1.82 7.72a69.48 69.48 0 002.33 7.43c.3.75.62 1.5 1 2.25a25.23 25.23 0 003.17 5.6c3.4 4.33 8.78 4.86 13 1.29a20.06 20.06 0 002.86-3.18 8.71 8.71 0 011.92-2 3.56 3.56 0 015.72 2.32 8.91 8.91 0 01-4.1 9 17.49 17.49 0 01-13.32 2 20.07 20.07 0 01-10.06-6.13 31.85 31.85 0 01-2.21-2.71 55 55 0 01-6.89-13.48C61.46 62.15 60.22 57 58.64 52c-.37-1.2-.76-2.39-1.18-3.57q-.87-2.46-1.89-4.86c-.73-1.68-1.55-3.32-2.25-5-.14-.33-.32-.78-.79-.62-1.13.37-2.45.59-3.63.85a29.58 29.58 0 01-3.63.49 17.74 17.74 0 01-7.18-.53 11.72 11.72 0 01-1.78-.78A7.37 7.37 0 0133.8 27a10.69 10.69 0 015.75-3.69 18.44 18.44 0 0110.46.2 17 17 0 016.87 4.06 1 1 0 001.36.12 9.87 9.87 0 003.89-5.21c1.57-4.46-.46-8.13-5.05-9.26-5.57-1.38-10.91.79-16.22 2.18-3.61.93-7.28 1.7-10.97 2.32zm12.67 11.49h-.92a5.87 5.87 0 00-3.92 1.41 1.23 1.23 0 00-.38 1.21c.16.51.69.69 1.15.84a9.36 9.36 0 003.69.27c1.08-.08 2.15-.19 3.23-.33a20 20 0 003-.49.74.74 0 00.58-.51c.12-.64-.78-1.05-1.25-1.26a12.79 12.79 0 00-5.18-1.14z"></path><path data-v-2072b8fa="" d="M130 22.79a4.58 4.58 0 01-.11 1.47 1.76 1.76 0 01-3.39-.58c-.1-1.1-.16-2.2-.34-3.3a27.39 27.39 0 00-7.64-15.1 3.1 3.1 0 01-1-1.28 1.76 1.76 0 012.93-1.76 27.66 27.66 0 013.46 4A31.07 31.07 0 01130 22.79zM123.48 23.34c0 1.36-.41 2.13-1.31 2.37a1.78 1.78 0 01-2-.94 3.69 3.69 0 01-.25-1.43 19.74 19.74 0 00-1-5.38 20.8 20.8 0 00-4.73-7.82 7.46 7.46 0 01-.72-.77 1.77 1.77 0 01.13-2.3 1.69 1.69 0 012.34-.14 15.11 15.11 0 011.58 1.62 24.55 24.55 0 015.96 14.79zM117 23.87c0 1.39-.64 2.23-1.7 2.29a1.83 1.83 0 01-1.88-2 14.48 14.48 0 00-4.15-9.66 1.77 1.77 0 01.41-3 1.65 1.65 0 012 .43 18 18 0 014.88 8.79 25.78 25.78 0 01.44 3.15z" class="cls-1"></path>
</svg>